<svg width="256" height="37" fill="none" xmlns="http://www.w3.org/2000/svg"><path d="M56.449 5.102v8.173h4.087v-2.724h5.449v4.087h-1.363V16h-12.26v-1.362H51V3.74h1.362V2.378h12.26V3.74h1.363v4.087h-5.45V5.102H56.45zm20.423 5.45h-4.087V16h-5.449V2.378H80.96V3.74h1.362v4.087H80.96v2.724h1.362V16h-5.45v-5.449zm0-5.45h-4.087v2.725h4.087V5.102zM94.57 2.378h5.449v5.449h-1.362v1.362h-1.362v1.362H94.57V16h-5.449v-5.449h-2.724V9.19h-1.362V7.827h-1.363v-5.45h5.45v4.087h1.362v1.363h2.724V6.464h1.362V2.378zm16.358 2.724h-4.087v2.725h4.087V5.102zM106.841 16h-5.449V2.378h13.622V3.74h1.363v5.449h-1.363v1.362h-8.173V16zm10.887-13.622h13.623v2.724h-4.087V16h-5.449V5.102h-4.087V2.378zm28.602 12.26V16h-12.26v-1.362h-1.362V3.74h1.362V2.378h12.26V3.74h1.362v10.898h-1.362zm-8.174-1.363h4.087V5.102h-4.087v8.173zm27.235-2.724h-8.174V9.19h-1.362V3.74h1.362V2.379h13.623v2.724h-9.536v2.725h8.173V9.19h1.363v5.449h-1.363V16h-13.622v-2.725h9.536v-2.724zm6.8-8.173h13.622v2.724h-4.086V16h-5.449V5.102h-4.087V2.378zm24.515 2.724h-4.087v2.725h4.087V5.102zM192.619 16h-5.449V3.74h1.363V2.378h12.26V3.74h1.362V16h-5.449v-5.449h-4.087V16zm20.423-5.449v1.362h-1.362v-1.362h-1.362V9.19h-1.362V16h-5.449V2.378h5.449V3.74h1.362v1.362h1.362v1.362h1.362V5.102h1.362V3.74h1.363V2.378h5.449V16h-5.449V9.189h-1.363v1.362h-1.362zm19.077-5.449h-4.087v2.725h4.087V5.102zM228.032 16h-5.449V2.378h13.623V3.74h1.362v5.449h-1.362v1.362h-8.174V16zm20.423-5.449h-8.173V9.19h-1.363V3.74h1.363V2.379h13.622v2.724h-9.536v2.725h8.174V9.19h1.362v5.449h-1.362V16h-13.623v-2.725h9.536v-2.724z" fill="#FED566"/><path d="M56.449 26.102v8.174h4.087V31.55h5.449v4.087h-1.363V37h-12.26v-1.362H51V24.74h1.362v-1.362h12.26v1.362h1.363v4.087h-5.45v-2.725H56.45zm24.51 9.536V37h-12.26v-1.362h-1.363V24.74h1.362v-1.362h12.26v1.362h1.363v10.898h-1.362zm-8.174-1.362h4.087v-8.174h-4.087v8.174zm16.336-10.898v10.898h9.536V37H83.672V23.378h5.45zm16.337 0v10.898h9.535V37h-14.984V23.378h5.449zm16.336 5.449h4.086v2.724h-4.086v2.725h9.535V37h-13.622v-1.362h-1.362V24.74h1.362v-1.362h13.622v2.724h-9.535v2.725zm23.147-2.725v8.174h4.087V31.55h5.449v4.087h-1.363V37h-12.26v-1.362h-1.362V24.74h1.362v-1.362h12.26v1.362h1.363v4.087h-5.449v-2.725h-4.087zm10.887-2.724h13.623v2.724h-4.087V37h-5.449V26.102h-4.087v-2.724zm14.98 0h13.622v2.724h-4.087v8.174h4.087V37h-13.622v-2.724h4.086v-8.174h-4.086v-2.724zm28.601 12.26V37h-12.26v-1.362h-1.362V24.74h1.362v-1.362h12.26v1.362h1.362v10.898h-1.362zm-8.173-1.362h4.087v-8.174h-4.087v8.174zm20.423-6.812v-4.086h5.449V37h-5.449v-4.087h-1.363v-1.362h-1.362V30.19h-1.362V37h-5.449V23.378h5.449v1.362h1.362v1.362h1.362v1.362h1.363zM27.453 9.548c-3.912-4.626-8.441-5.597-12.47-2.78-3.276 2.285-5.204 7.33-1.715 12.203L9.047 21.77c-2.082 1.37-4.125 2.799-6.245 4.112-.482.305-1.368.438-1.83.19-.483-.228-.926-1.028-.926-1.58-.058-6.568-.058-13.136-.02-19.704-.018-2.265 1.64-3.769 4.03-3.769C8.68 1 13.305 1 17.931 1h16.672c.328 0 .636 0 .964.019.674.02 1.195.286 1.387.952.193.666.02 1.256-.578 1.656a1796.08 1796.08 0 01-8.924 5.92zM9.914 28.433c3.412 5.255 9.175 5.026 12.297 2.875 3.373-2.304 5.32-7.387 1.85-12.26 1.716-1.162 3.431-2.304 5.146-3.465 1.754-1.162 3.527-2.304 5.281-3.484.636-.419 1.272-.61 1.986-.248.732.362.905.99.905 1.752V33.02c0 2.38-1.56 3.96-3.99 3.96-10.426.019-20.873 0-31.3.019-.81 0-1.484-.228-1.715-1.066-.231-.8.231-1.295.867-1.732 2.872-1.923 5.744-3.827 8.673-5.769z" fill="#fff"/></svg>