<svg width="287" height="131" fill="none" xmlns="http://www.w3.org/2000/svg"><path d="M8.15 85.143v11.443h5.721v-3.814H21.5v5.721h-1.908v1.907H2.428v-1.907H.521V83.236h1.907v-1.907h17.164v1.907H21.5v5.721h-7.63v-3.814H8.15zm28.592 7.629H31.02v7.628h-7.628V81.329h19.071v1.907h1.907v5.721h-1.907v3.815h1.907v7.628h-7.628v-7.628zm0-7.629H31.02v3.814h5.722v-3.814zM61.52 81.33h7.628v7.628h-1.907v1.908h-1.907v1.907h-3.815v7.628h-7.628v-7.628h-3.814v-1.907H48.17v-1.908h-1.908V81.33h7.629v5.721h1.907v1.907h3.814V87.05h1.907v-5.72zm22.9 3.814h-5.721v3.814h5.72v-3.814zM78.699 100.4H71.07V81.329h19.071v1.907h1.907v7.629h-1.907v1.907H78.7v7.628zM93.94 81.329h19.071v3.814h-5.721V100.4h-7.629V85.143H93.94V81.33zm40.042 17.164v1.907h-17.164v-1.907h-1.907V83.236h1.907v-1.907h17.164v1.907h1.907v15.257h-1.907zm-11.443-1.907h5.722V85.143h-5.722v11.443zm38.128-3.814h-11.443v-1.907h-1.907v-7.629h1.907v-1.907h19.071v3.814h-13.35v3.814h11.443v1.908h1.907v7.628h-1.907v1.907h-19.071v-3.814h13.35v-3.814zm9.521-11.443h19.071v3.814h-5.721V100.4h-7.629V85.143h-5.721V81.33zm34.321 3.814h-5.722v3.814h5.722v-3.814zm-5.722 15.257h-7.628V83.236h1.907v-1.907h17.164v1.907h1.907V100.4h-7.628v-7.628h-5.722v7.628zm28.592-7.628v1.907h-1.907v-1.907h-1.907v-1.907h-1.907v9.535h-7.629V81.329h7.629v1.907h1.907v1.907h1.907v1.907h1.907v-1.907h1.907v-1.907h1.907v-1.907h7.629V100.4h-7.629v-9.535h-1.907v1.907h-1.907zm26.707-7.629h-5.721v3.814h5.721v-3.814zm-5.721 15.257h-7.628V81.329h19.071v1.907h1.907v7.629h-1.907v1.907h-11.443v7.628zm28.592-7.628h-11.443v-1.907h-1.907v-7.629h1.907v-1.907h19.072v3.814h-13.35v3.814h11.443v1.908h1.907v7.628h-1.907v1.907h-19.072v-3.814h13.35v-3.814z" fill="#FED566"/><path d="M33.907 114.143v11.443h5.722v-3.814h7.628v5.721H45.35v1.907H28.186v-1.907h-1.907v-15.257h1.907v-1.907H45.35v1.907h1.907v5.721h-7.628v-3.814h-5.722zm34.314 13.35v1.907H51.056v-1.907H49.15v-15.257h1.907v-1.907h17.165v1.907h1.907v15.257H68.22zm-11.443-1.907h5.721v-11.443h-5.721v11.443zm22.87-15.257v15.257h13.35v3.814H72.02v-19.071h7.628zm22.871 0v15.257h13.35v3.814H94.891v-19.071h7.628zm22.871 7.628h5.721v3.815h-5.721v3.814h13.35v3.814h-19.072v-1.907h-1.907v-15.257h1.907v-1.907h19.072v3.814h-13.35v3.814zm32.406-3.814v11.443h5.721v-3.814h7.629v5.721h-1.907v1.907h-17.164v-1.907h-1.907v-15.257h1.907v-1.907h17.164v1.907h1.907v5.721h-7.629v-3.814h-5.721zm15.242-3.814h19.071v3.814h-5.721V129.4h-7.628v-15.257h-5.722v-3.814zm20.971 0h19.071v3.814h-5.721v11.443h5.721v3.814h-19.071v-3.814h5.722v-11.443h-5.722v-3.814zm40.042 17.164v1.907h-17.164v-1.907h-1.907v-15.257h1.907v-1.907h17.164v1.907h1.908v15.257h-1.908zm-11.442-1.907h5.721v-11.443h-5.721v11.443zm28.592-9.536v-5.721h7.628V129.4h-7.628v-5.721h-1.907v-1.907h-1.908v-1.908h-1.907v9.536h-7.628v-19.071h7.628v1.907h1.907v1.907h1.908v1.907h1.907zM156.035 11.967c-5.478-6.477-11.819-7.836-17.458-3.891-4.587 3.198-7.286 10.261-2.402 17.084l-5.909 3.918c-2.914 1.919-5.775 3.918-8.743 5.757-.674.426-1.916.613-2.563.266-.675-.32-1.295-1.439-1.295-2.212-.081-9.195-.081-18.39-.027-27.585-.027-3.172 2.293-5.277 5.639-5.277C129.753 0 136.229 0 142.705 0h23.341c.458 0 .89 0 1.349.027.944.026 1.673.4 1.943 1.332.269.933.027 1.76-.81 2.319a2509.023 2509.023 0 01-12.493 8.289zM131.48 38.406c4.776 7.357 12.844 7.037 17.215 4.025 4.723-3.225 7.448-10.341 2.591-17.164 2.401-1.626 4.803-3.225 7.204-4.851 2.456-1.626 4.938-3.225 7.394-4.878.89-.586 1.781-.852 2.779-.346 1.025.506 1.268 1.386 1.268 2.452V44.83c0 3.331-2.185 5.543-5.585 5.543-14.598.027-29.223 0-43.821.027-1.133 0-2.078-.32-2.402-1.492-.323-1.12.324-1.813 1.215-2.426 4.02-2.692 8.041-5.357 12.142-8.076z" fill="#fff"/></svg>