<svg width="250" height="111" fill="none" xmlns="http://www.w3.org/2000/svg"><path d="M19 9h52v9H19V9zm8-9h9v9h-9V0zm18 0h9v9h-9V0zM9 84v9h179v9h8v9h9v-9h9v9h9v-9h17v-8.828h9V27h-9v-8.986H.113V84H9z" fill="#fff"/><path d="M40.01 57.42c.179.72.268 1.617.268 2.694 0 1.032-.09 1.93-.269 2.693.18.718.27 1.616.27 2.693 0 1.033-.09 1.93-.27 2.694h-2.693c.18.718.27 1.615.27 2.693 0 1.032-.09 1.93-.27 2.693H21.157c-.18-.763-.27-1.661-.27-2.693 0-1.078.09-1.975.27-2.694h-2.693c-.18-.763-.27-1.66-.27-2.693 0-1.077.09-1.975.27-2.693h5.386c.18.718.27 1.616.27 2.693 0 1.033-.09 1.93-.27 2.694h10.773c-.18-.764-.27-1.661-.27-2.694 0-1.077.09-1.975.27-2.693-.18-.763-.27-1.66-.27-2.693 0-1.077.09-1.975.27-2.693H21.157c-.18-.763-.27-1.66-.27-2.693 0-1.078.09-1.975.27-2.693h-2.693c-.18-.763-.27-1.661-.27-2.694 0-1.077.09-1.974.27-2.693-.18-.763-.27-1.66-.27-2.693 0-1.077.09-1.975.27-2.693h2.693c-.18-.763-.27-1.66-.27-2.693 0-1.077.09-1.975.27-2.693h16.159c.18.718.27 1.616.27 2.693 0 1.032-.09 1.93-.27 2.693h2.693c.18.718.27 1.616.27 2.693 0 1.032-.09 1.93-.27 2.693h-5.386c-.18-.763-.27-1.66-.27-2.693 0-1.077.09-1.975.27-2.693H23.85c.18.718.27 1.616.27 2.693 0 1.032-.09 1.93-.27 2.693.18.718.27 1.616.27 2.693 0 1.033-.09 1.93-.27 2.694h13.466c.18.718.27 1.616.27 2.693 0 1.032-.09 1.93-.27 2.693h2.693zm26.957-5.385c.18.718.27 1.616.27 2.693 0 1.032-.09 1.93-.27 2.693.18.718.27 1.616.27 2.693 0 1.032-.09 1.93-.27 2.693h-2.02c.18.718.27 1.616.27 2.693 0 1.033-.09 1.93-.27 2.694h-3.366c.18.718.269 1.615.269 2.693 0 1.032-.09 1.93-.27 2.693H50.809c-.18-.763-.27-1.661-.27-2.693 0-1.078.09-1.975.27-2.694h-3.367c-.179-.763-.269-1.66-.269-2.693 0-1.077.09-1.975.27-2.693h-2.02c-.18-.763-.27-1.66-.27-2.693 0-1.077.09-1.975.27-2.693-.18-.763-.27-1.66-.27-2.693 0-1.078.09-1.975.27-2.693-.18-.763-.27-1.661-.27-2.694 0-1.077.09-1.974.27-2.693h2.02c-.18-.763-.27-1.66-.27-2.693 0-1.077.09-1.975.27-2.693h3.366c-.18-.763-.27-1.66-.27-2.693 0-1.077.09-1.975.27-2.693h10.773c.18.718.269 1.616.269 2.693 0 1.032-.09 1.93-.27 2.693h3.367c.18.718.27 1.616.27 2.693 0 1.032-.09 1.93-.27 2.693h2.02c.18.718.27 1.616.27 2.693 0 1.033-.09 1.93-.27 2.694zM61.58 62.807c-.18-.763-.27-1.66-.27-2.693 0-1.077.09-1.975.27-2.693-.18-.763-.27-1.66-.27-2.693 0-1.078.09-1.975.27-2.693-.18-.763-.27-1.661-.27-2.694 0-1.077.09-1.974.27-2.693h-2.02c-.18-.763-.27-1.66-.27-2.693 0-1.077.09-1.975.27-2.693h-6.733c.18.718.27 1.616.27 2.693 0 1.032-.09 1.93-.27 2.693h-2.02c.18.718.27 1.616.27 2.693 0 1.033-.09 1.93-.27 2.694.18.718.27 1.616.27 2.693 0 1.032-.09 1.93-.27 2.693.18.718.27 1.616.27 2.693 0 1.032-.09 1.93-.27 2.693h2.02c.18.718.27 1.616.27 2.693 0 1.033-.09 1.93-.27 2.694h6.733c-.18-.764-.27-1.661-.27-2.694 0-1.077.09-1.975.27-2.693h2.02zm32.344 5.386c.18.719.269 1.616.269 2.694 0 1.032-.09 1.93-.27 2.693H75.074c-.18-.763-.27-1.661-.27-2.693 0-1.078.09-1.975.27-2.694-.18-.763-.27-1.66-.27-2.693 0-1.077.09-1.975.27-2.693-.18-.763-.27-1.66-.27-2.693 0-1.077.09-1.975.27-2.693-.18-.763-.27-1.66-.27-2.693 0-1.078.09-1.975.27-2.693-.18-.763-.27-1.661-.27-2.694 0-1.077.09-1.974.27-2.693-.18-.763-.27-1.66-.27-2.693 0-1.077.09-1.975.27-2.693-.18-.763-.27-1.66-.27-2.693 0-1.077.09-1.975.27-2.693h5.386c.18.718.27 1.616.27 2.693 0 1.032-.09 1.93-.27 2.693.18.718.27 1.616.27 2.693 0 1.032-.09 1.93-.27 2.693.18.718.27 1.616.27 2.693 0 1.033-.09 1.93-.27 2.694.18.718.27 1.616.27 2.693 0 1.032-.09 1.93-.27 2.693.18.718.27 1.616.27 2.693 0 1.032-.09 1.93-.27 2.693.18.718.27 1.616.27 2.693 0 1.033-.09 1.93-.27 2.694h13.466zm26.957-16.158c.18.718.27 1.616.27 2.693 0 1.032-.09 1.93-.27 2.693.18.718.27 1.616.27 2.693 0 1.032-.09 1.93-.27 2.693h-2.693c.18.718.27 1.616.27 2.693 0 1.033-.09 1.93-.27 2.694h-2.693c.18.718.269 1.615.269 2.693 0 1.032-.089 1.93-.269 2.693H99.337c-.18-.763-.269-1.661-.269-2.693 0-1.078.09-1.975.27-2.694-.18-.763-.27-1.66-.27-2.693 0-1.077.09-1.975.27-2.693-.18-.763-.27-1.66-.27-2.693 0-1.077.09-1.975.27-2.693-.18-.763-.27-1.66-.27-2.693 0-1.078.09-1.975.27-2.693-.18-.763-.27-1.661-.27-2.694 0-1.077.09-1.974.27-2.693-.18-.763-.27-1.66-.27-2.693 0-1.077.09-1.975.27-2.693-.18-.763-.27-1.66-.27-2.693 0-1.077.09-1.975.27-2.693h16.158c.18.718.269 1.616.269 2.693 0 1.032-.089 1.93-.269 2.693h2.693c.18.718.27 1.616.27 2.693 0 1.032-.09 1.93-.27 2.693h2.693c.18.718.27 1.616.27 2.693 0 1.033-.09 1.93-.27 2.694zm-5.386 10.772c-.179-.763-.269-1.66-.269-2.693 0-1.077.09-1.975.269-2.693-.179-.763-.269-1.66-.269-2.693 0-1.078.09-1.975.269-2.693-.179-.763-.269-1.661-.269-2.694 0-1.077.09-1.974.269-2.693h-2.693c-.18-.763-.269-1.66-.269-2.693 0-1.077.089-1.975.269-2.693h-8.079c.179.718.269 1.616.269 2.693 0 1.032-.09 1.93-.269 2.693.179.718.269 1.616.269 2.693 0 1.033-.09 1.93-.269 2.694.179.718.269 1.616.269 2.693 0 1.032-.09 1.93-.269 2.693.179.718.269 1.616.269 2.693 0 1.032-.09 1.93-.269 2.693.179.718.269 1.616.269 2.693 0 1.033-.09 1.93-.269 2.694h8.079c-.18-.764-.269-1.661-.269-2.694 0-1.077.089-1.975.269-2.693h2.693zm59.302-10.772c.18.718.269 1.616.269 2.693 0 1.032-.089 1.93-.269 2.693.18.718.269 1.616.269 2.693 0 1.032-.089 1.93-.269 2.693h-2.02c.18.718.269 1.616.269 2.693 0 1.033-.089 1.93-.269 2.694h-3.366c.179.718.269 1.615.269 2.693 0 1.032-.09 1.93-.269 2.693h-10.773c-.179-.763-.269-1.661-.269-2.693 0-1.078.09-1.975.269-2.694h-3.366c-.18-.763-.27-1.66-.27-2.693 0-1.077.09-1.975.27-2.693h-2.02c-.18-.763-.269-1.66-.269-2.693 0-1.077.089-1.975.269-2.693-.18-.763-.269-1.66-.269-2.693 0-1.078.089-1.975.269-2.693-.18-.763-.269-1.661-.269-2.694 0-1.077.089-1.974.269-2.693h2.02c-.18-.763-.27-1.66-.27-2.693 0-1.077.09-1.975.27-2.693h3.366c-.179-.763-.269-1.66-.269-2.693 0-1.077.09-1.975.269-2.693h10.773c.179.718.269 1.616.269 2.693 0 1.032-.09 1.93-.269 2.693h3.366c.18.718.269 1.616.269 2.693 0 1.032-.089 1.93-.269 2.693h2.02c.18.718.269 1.616.269 2.693 0 1.033-.089 1.93-.269 2.694zm-5.386 10.772c-.18-.763-.27-1.66-.27-2.693 0-1.077.09-1.975.27-2.693-.18-.763-.27-1.66-.27-2.693 0-1.078.09-1.975.27-2.693-.18-.763-.27-1.661-.27-2.694 0-1.077.09-1.974.27-2.693h-2.02c-.18-.763-.269-1.66-.269-2.693 0-1.077.089-1.975.269-2.693h-6.733c.18.718.269 1.616.269 2.693 0 1.032-.089 1.93-.269 2.693h-2.02c.18.718.269 1.616.269 2.693 0 1.033-.089 1.93-.269 2.694.18.718.269 1.616.269 2.693 0 1.032-.089 1.93-.269 2.693.18.718.269 1.616.269 2.693 0 1.032-.089 1.93-.269 2.693h2.02c.18.718.269 1.616.269 2.693 0 1.033-.089 1.93-.269 2.694h6.733c-.18-.764-.269-1.661-.269-2.694 0-1.077.089-1.975.269-2.693h2.02zm32.344-21.545c.179.718.269 1.616.269 2.693 0 1.032-.09 1.93-.269 2.693.179.718.269 1.616.269 2.693 0 1.033-.09 1.93-.269 2.694.179.718.269 1.616.269 2.693 0 1.032-.09 1.93-.269 2.693.179.718.269 1.616.269 2.693 0 1.032-.09 1.93-.269 2.693.179.718.269 1.616.269 2.693 0 1.033-.09 1.93-.269 2.694h-2.693c.179.718.269 1.615.269 2.693 0 1.032-.09 1.93-.269 2.693h-16.159c-.18-.763-.27-1.661-.27-2.693 0-1.078.09-1.975.27-2.694h-2.693c-.18-.763-.27-1.66-.27-2.693 0-1.077.09-1.975.27-2.693-.18-.763-.27-1.66-.27-2.693 0-1.077.09-1.975.27-2.693-.18-.763-.27-1.66-.27-2.693 0-1.078.09-1.975.27-2.693-.18-.763-.27-1.661-.27-2.694 0-1.077.09-1.974.27-2.693-.18-.763-.27-1.66-.27-2.693 0-1.077.09-1.975.27-2.693-.18-.763-.27-1.66-.27-2.693 0-1.077.09-1.975.27-2.693h5.386c.179.718.269 1.616.269 2.693 0 1.032-.09 1.93-.269 2.693.179.718.269 1.616.269 2.693 0 1.032-.09 1.93-.269 2.693.179.718.269 1.616.269 2.693 0 1.033-.09 1.93-.269 2.694.179.718.269 1.616.269 2.693 0 1.032-.09 1.93-.269 2.693.179.718.269 1.616.269 2.693 0 1.032-.09 1.93-.269 2.693.179.718.269 1.616.269 2.693 0 1.033-.09 1.93-.269 2.694h10.773c-.18-.764-.27-1.661-.27-2.694 0-1.077.09-1.975.27-2.693-.18-.763-.27-1.66-.27-2.693 0-1.077.09-1.975.27-2.693-.18-.763-.27-1.66-.27-2.693 0-1.078.09-1.975.27-2.693-.18-.763-.27-1.661-.27-2.694 0-1.077.09-1.974.27-2.693-.18-.763-.27-1.66-.27-2.693 0-1.077.09-1.975.27-2.693-.18-.763-.27-1.66-.27-2.693 0-1.077.09-1.975.27-2.693h5.386c.179.718.269 1.616.269 2.693 0 1.032-.09 1.93-.269 2.693zm27.227-2.693c0 1.032-.09 1.93-.269 2.693h-8.08c.18.718.269 1.616.269 2.693 0 1.032-.089 1.93-.269 2.693.18.718.269 1.616.269 2.693 0 1.033-.089 1.93-.269 2.694.18.718.269 1.616.269 2.693 0 1.032-.089 1.93-.269 2.693.18.718.269 1.616.269 2.693 0 1.032-.089 1.93-.269 2.693.18.718.269 1.616.269 2.693 0 1.033-.089 1.93-.269 2.694.18.718.269 1.615.269 2.693 0 1.032-.089 1.93-.269 2.693h-5.386c-.18-.763-.269-1.661-.269-2.693 0-1.078.089-1.975.269-2.694-.18-.763-.269-1.66-.269-2.693 0-1.077.089-1.975.269-2.693-.18-.763-.269-1.66-.269-2.693 0-1.077.089-1.975.269-2.693-.18-.763-.269-1.66-.269-2.693 0-1.078.089-1.975.269-2.693-.18-.763-.269-1.661-.269-2.694 0-1.077.089-1.974.269-2.693-.18-.763-.269-1.66-.269-2.693 0-1.077.089-1.975.269-2.693h-8.08c-.179-.763-.269-1.66-.269-2.693 0-1.077.09-1.975.269-2.693h21.546c.179.718.269 1.616.269 2.693z" fill="#E2274D"/></svg>